<?xml version="1.0" encoding="utf-8"?>
<!-- Generator: Adobe Illustrator 24.0.1, SVG Export Plug-In . SVG Version: 6.00 Build 0)  -->
<svg version="1.1" id="Layer_1" xmlns="http://www.w3.org/2000/svg" xmlns:xlink="http://www.w3.org/1999/xlink" x="0px" y="0px"
	 viewBox="0 0 1126.8 443.8" style="enable-background:new 0 0 1126.8 443.8;" xml:space="preserve">
<style type="text/css">
	.st0{fill:#AD8025;}
	.st1{fill:#CC9933;}
	.st2{fill:#CDA349;}
</style>
<path class="st0" d="M324.4,11.7l-27.1,37.2l27.1,37.2l-7.3,4.1c-28.4,16.6-52,40.2-68.4,68.6c-15.9,27.3-24.9,59.1-24.9,92.9
	c0,34,9,65.6,24.9,93.1c8.8,15.3,19.6,29,32.2,41.3h-85.3l21.3,29.2h107.5v-31.8c-20.9-13.5-38-31.8-50.5-53.1
	c-13.3-23.2-20.9-49.9-20.9-78.7c0-6.9,0.4-13.5,1.3-20.2c5.2,4.1,10.1,8.4,15.3,13.5c29.9,29.9,48.6,76.7,54.8,117.8v-91.6
	c-1.5-2.8-3-5.6-4.7-8.4c-8-13.8-17.8-26.9-29.4-38.5c-5.8-5.8-11.8-11.2-18.5-16.1c-3.4-2.6-6.9-5.2-10.3-7.5
	c3.2-9.7,7.5-18.9,12.5-27.5c12.5-21.5,29.7-39.6,50.5-53.1v-34V11.7"/>
<path class="st0" d="M101.9,178.1L97,146.7l-31.6-5.2l4.9,31.6L101.9,178.1l-2.1,8.2c-8.4,31.6-8.4,65.1,0,96.7
	c11.2,41.1,35.7,76.7,69.9,101.9c-29.4-40-57.2-118.4-43.6-182.7c14.2-3,28.6-4.1,43-3c15.3,1.1,30.3,4.3,44.9,9.7
	c0.6-3,1.3-6,2.1-9c1.7-6.4,3.7-12.7,6-18.9c-16.6-6-33.7-9.7-51.2-10.7c-20.4-1.5-41.1,0.4-60.8,5.8L101.9,178.1z"/>
<path class="st1" d="M324.4,11.7l26.9,37.2l-26.9,37.2l7.1,4.1c28.4,16.6,52,40.2,68.4,68.6c15.9,27.3,24.9,59.1,24.9,92.9
	c0,34-9,65.6-24.9,93.1c-8.8,15.3-19.6,29-32.2,41.3H453l-21.3,29.2H324.4v-31.8c20.6-13.5,37.8-31.8,50.3-53.1
	c13.3-23.2,20.9-49.9,20.9-78.7c0-6.9-0.4-13.5-1.3-20.2c-5.2,4.1-10.1,8.4-15.3,13.5c-29.9,29.9-48.6,76.7-54.6,117.8v-91.6
	c1.3-2.8,2.8-5.6,4.5-8.4c8-13.8,17.8-26.9,29.4-38.5c5.8-5.8,11.8-11.2,18.5-16.1c3.4-2.6,6.9-5.2,10.3-7.5
	c-3.2-9.7-7.5-18.9-12.5-27.5c-12.5-21.5-29.7-39.6-50.3-53.1v-34V11.7"/>
<path class="st1" d="M546.7,178.1l4.9-31.4l31.6-5.2l-4.9,31.6L546.7,178.1l2.1,8.2c8.4,31.6,8.4,65.1,0,96.7
	c-11,41.1-35.7,76.7-69.9,101.9c29.4-40,57.2-118.4,43.6-182.7c-14.2-3-28.6-4.1-43-3c-15.3,1.1-30.3,4.3-44.9,9.7
	c-0.6-3-1.3-6-2.1-9c-1.7-6.4-3.7-12.7-6-18.9c16.6-6,33.7-9.7,51.2-10.7c20.4-1.5,41.1,0.4,60.8,5.8L546.7,178.1z"/>
<g>
	<path d="M681.9,97.2c-7.6,0-13.3,1.2-17.1,3.7c-3.9,2.4-6.6,5.8-8.3,10s-3,9.3-4.1,15.1c-1.7,0-3.7-0.2-5.9-0.5s-4-0.9-5.4-1.7
		c1.3-6.6,2.2-13.2,2.8-19.8c0.6-6.6,0.9-12.6,0.9-17.9c4.4,0.2,9.8,0.3,16.2,0.5s13.3,0.2,20.8,0.2s15.2,0,23.3,0
		c8,0,15.9,0,23.5,0s14.7-0.1,21.1-0.2c6.5-0.2,11.8-0.3,16.1-0.5c-0.2,5.7-0.1,11.5,0.1,17.5c0.2,6,0.7,12.7,1.3,20.3
		c-1.6,0.8-3.3,1.4-5.3,1.8s-4.1,0.5-6.5,0.4c-0.2-9.3-2.3-16.4-6.5-21.4s-10.9-7.4-20.2-7.4L681.9,97.2L681.9,97.2z M693.9,93.2
		h22.2v123.2c0,5.2,0.5,9.2,1.4,12.2c0.9,2.9,2.8,5,5.4,6.1c2.7,1.2,6.5,1.9,11.6,2.2c0.5,1.3,0.8,2.7,0.9,4.4
		c0.2,1.7,0.2,3.6,0.2,5.8c-5-0.3-10.2-0.5-15.5-0.6s-10.4-0.1-15.5-0.1c-3.3,0-6.8,0-10.5,0.1s-7.3,0.2-10.7,0.2
		c-3.5,0.1-6.7,0.2-9.7,0.4c0-2.2,0.1-4.1,0.2-5.8c0.2-1.7,0.5-3.1,0.9-4.4c5-0.3,8.9-1.1,11.7-2.2c2.8-1.2,4.6-3.2,5.7-6.1
		c1-2.9,1.5-7,1.5-12.2V93.2H693.9z"/>
	<path d="M841.2,85.4l56.2,128.9c2.7,5.8,4.9,10.3,6.6,13.5c1.7,3.2,3.5,5.4,5.3,6.6c1.8,1.3,3.9,2.1,6.3,2.6c0.6,2,1,3.8,1.2,5.2
		s0.2,3.1,0.2,5c-1.6-0.2-4-0.3-7.3-0.4c-3.3-0.1-6.8-0.2-10.4-0.2c-3.6-0.1-6.7-0.1-9.2-0.1c-1.9,0-4.1,0-6.6,0.1s-5.1,0.2-7.8,0.2
		c-2.7,0.1-5.1,0.2-7.2,0.2c-2.1,0.1-3.8,0.1-5.1,0.1c0-1.9,0.1-3.7,0.4-5.4c0.2-1.7,0.7-3.3,1.3-4.7c6.5-0.8,10.3-2.2,11.5-4.4
		c1.2-2.1,0.2-6.8-3-14l-32.8-76.7c-2-4.9-3.9-9.2-5.4-13c-1.6-3.8-3.5-8.6-5.7-14.4h1.2c-1.9,6-3.6,11.1-5.1,15.2
		c-1.5,4.2-3,8.1-4.4,11.9l-26.9,70.1c-3.5,9.3-4.5,15.7-3.2,19.2s5.2,5.5,11.7,6c0.6,1.4,1.1,3,1.3,4.7s0.4,3.5,0.4,5.4
		c-1.7-0.2-3.9-0.3-6.4-0.4c-2.5-0.1-5.2-0.2-7.9-0.2c-2.8-0.1-5.5-0.1-8.1-0.1c-3.9,0-7.6,0.1-11.1,0.2c-3.5,0.2-6.3,0.3-8.5,0.5
		c0-1.6,0.1-3.3,0.4-5.1c0.2-1.8,0.7-3.4,1.3-4.8c2.8-0.6,5.2-1.7,7.1-3.3c1.9-1.6,3.7-4.1,5.5-7.7c1.8-3.5,3.9-8.4,6.3-14.5
		L832,86.4c1.6-0.3,3-0.5,4.4-0.7C837.7,85.5,839.3,85.4,841.2,85.4z M862.7,183.9l2.1,10.6c-10.5,0-21.8,0.1-33.9,0.2
		c-12,0.2-22.9,0.4-32.7,0.7l3.8-11.6h60.7V183.9z"/>
	<path d="M973.4,216.9c0,11-0.5,20.8-1.5,29.3s-3.1,16.2-6.3,23c-3.2,6.8-7.8,13.2-13.8,19c-6.1,5.8-14.1,11.5-24.2,17
		c-1.1-0.6-2-1.5-2.6-2.6s-1.1-2.3-1.4-3.5c6-5,11-10.3,15.1-15.8s7.2-11.9,9.3-19.1s3.2-15.8,3.2-25.7V116.8
		c0-5.3-0.5-9.4-1.4-12.3s-2.6-4.9-5-6.1c-2.4-1.3-5.7-2-9.9-2.1c-0.5-1.3-0.8-2.8-0.9-4.5c-0.2-1.7-0.2-3.6-0.2-5.7
		c2.4,0.2,5.1,0.3,8.1,0.4c3.1,0.1,6.4,0.2,9.9,0.2c3.5,0.1,7,0.1,10.5,0.1c5.2,0,10.5-0.1,16.1-0.2c5.5-0.2,9.7-0.3,12.5-0.5
		c0,2-0.1,3.9-0.2,5.7c-0.2,1.7-0.5,3.2-0.9,4.5c-3.9,0.2-7.1,0.9-9.6,2.1c-2.4,1.3-4.2,3.3-5.2,6.1c-1,2.8-1.5,6.9-1.5,12.3
		L973.4,216.9L973.4,216.9z"/>
	<path d="M1051.1,216.9c0,11-0.5,20.8-1.5,29.3s-3.1,16.2-6.3,23c-3.2,6.8-7.8,13.2-13.8,19c-6.1,5.8-14.1,11.5-24.2,17
		c-1.1-0.6-2-1.5-2.6-2.6s-1.1-2.3-1.4-3.5c6-5,11-10.3,15.1-15.8s7.2-11.9,9.3-19.1s3.2-15.8,3.2-25.7V116.8
		c0-5.3-0.5-9.4-1.4-12.3s-2.6-4.9-5-6.1c-2.4-1.3-5.7-2-9.9-2.1c-0.5-1.3-0.8-2.8-0.9-4.5c-0.2-1.7-0.2-3.6-0.2-5.7
		c2.4,0.2,5.1,0.3,8.1,0.4c3.1,0.1,6.4,0.2,9.9,0.2c3.5,0.1,7,0.1,10.5,0.1c5.2,0,10.5-0.1,16.1-0.2c5.5-0.2,9.7-0.3,12.5-0.5
		c0,2-0.1,3.9-0.2,5.7c-0.2,1.7-0.5,3.2-0.9,4.5c-3.9,0.2-7.1,0.9-9.6,2.1c-2.4,1.3-4.2,3.3-5.2,6.1c-1,2.8-1.5,6.9-1.5,12.3
		L1051.1,216.9L1051.1,216.9z"/>
</g>
<g>
	<path d="M636.6,388.8c-4.7,0-8.8-1.1-12.4-3.4c-3.6-2.2-6.4-5.4-8.5-9.4s-3.1-45.6-3.1-50.9c0-4.3,0.7,28.9,2.1,25.7
		c1.4-3.2,3.3-5.9,5.7-8.1s5.1-3.8,8.1-4.8c3-1.1,6.1-1.6,9.3-1.6s6.1,0.3,8.7,1c2.6,0.7,5.3,1.6,8.1,2.9c-0.4,1.8-0.6,3.6-0.7,5.6
		c-0.1,2-0.2,4-0.2,6.1c-0.7,0.3-1.3,0.4-1.9,0.5c-0.6,0.1-1.3,0.2-2.1,0.2c-0.1-3.6-0.6-6.3-1.6-8.2c-1-1.9-2.3-3.2-3.9-3.9
		c-1.7-0.7-3.6-1.1-5.8-1.1c-3.2,0-5.9,0.6-8.2,1.7c-2.3,1.2-4.1,2.7-5.6,4.6c-1.4,1.9-2.5,4.1-3.2,6.6s-1,5-1,7.7
		c0,4.5,0.8,8.5,2.3,12.2s3.7,6.5,6.6,8.7c2.9,2.1,6.3,3.2,10.3,3.2c2.4,0,4.9-0.4,7.4-1.2s4.8-1.9,7-3.2c0.3,0.3,0.6,0.6,0.9,1.1
		c0.3,0.5,0.4,0.9,0.5,1.2c-3,2.3-5.9,4-8.8,5.1C643.7,388.2,640.4,388.8,636.6,388.8z"/>
	<path d="M685.3,388.8c-5,0-9.3-1.2-13.1-3.5c-3.7-2.3-6.6-5.5-8.7-9.4c-2.1-4-3.1-8.5-3.1-13.4c0-3.9,0.6-7.4,1.9-10.6
		s3.1-5.9,5.3-8.2c2.3-2.3,4.9-4.1,7.9-5.4s6.3-1.9,9.7-1.9c4.8,0,9.1,1.1,12.9,3.3c3.8,2.2,6.7,5.2,8.9,9.1s3.2,8.4,3.2,13.6
		c0,3.7-0.6,7.2-1.8,10.4c-1.2,3.2-2.9,6-5.2,8.4c-2.2,2.4-4.9,4.3-7.9,5.6C692.3,388.1,689,388.8,685.3,388.8z M686.8,385.1
		c3.3,0,6.1-0.9,8.4-2.8c2.3-1.8,4.1-4.3,5.4-7.5c1.3-3.1,1.9-6.6,1.9-10.5c0-4.5-0.8-8.7-2.5-12.4c-1.6-3.7-3.9-6.6-6.7-8.8
		c-2.8-2.2-6-3.2-9.7-3.2c-3,0-5.6,0.8-8,2.5c-2.3,1.7-4.2,4.1-5.6,7.1c-1.4,3.1-2,6.6-2,10.7c0,3.2,0.4,6.2,1.2,9.2s2,5.6,3.6,7.9
		s3.5,4.2,5.9,5.5C681.1,384.4,683.8,385.1,686.8,385.1z"/>
	<path d="M737.2,384.7c2.8,0,5-0.3,6.6-0.9s2.9-1.6,3.9-3s1.9-3.3,2.7-5.6c0.8,0.2,1.4,0.4,1.9,0.7c0.5,0.3,1,0.6,1.4,1.1
		c-0.6,1.7-1,3.6-1.4,5.6s-0.7,3.9-0.9,5.7c-1-0.1-2.2-0.1-3.8-0.1s-3.3,0-5.2,0s-3.8,0-5.6,0c-1.4,0-3,0-4.9,0c-1.8,0-3.7,0-5.6,0
		c-1.9,0-3.6,0-5.3,0.1c-1.6,0-2.9,0.1-3.9,0.1c0-0.7,0-1.3,0.1-1.9c0-0.5,0.2-1,0.3-1.4c1.4-0.1,2.4-0.4,3.2-0.8s1.3-1.1,1.6-2.2
		c0.3-1,0.5-2.5,0.5-4.5v-31c0-1.7-0.2-3-0.5-3.9s-0.8-1.6-1.6-2s-1.8-0.6-3.2-0.7c-0.2-0.4-0.3-0.9-0.3-1.5
		c-0.1-0.6-0.1-1.2-0.1-1.8c1,0.1,2.1,0.1,3.2,0.1c1.1,0,2.2,0.1,3.3,0.1s1.9,0,2.6,0c1.1,0,2.2,0,3.2,0s2,0,3-0.1s2-0.1,3-0.1
		c0,0.7,0,1.3-0.1,1.8c-0.1,0.6-0.2,1-0.3,1.4c-1.3,0.1-2.4,0.3-3.1,0.7c-0.8,0.4-1.3,1.1-1.6,2c-0.3,1-0.5,2.3-0.5,4.1v30.8
		c0,1.9,0.2,3.3,0.5,4.3c0.4,1,1,1.7,2,2.1s2.4,0.6,4.3,0.6h0.6V384.7z"/>
	<path d="M779.5,384.7c2.8,0,5-0.3,6.6-0.9s2.9-1.6,3.9-3s1.9-3.3,2.7-5.6c0.8,0.2,1.4,0.4,1.9,0.7c0.5,0.3,1,0.6,1.4,1.1
		c-0.6,1.7-1,3.6-1.4,5.6s-0.7,3.9-0.9,5.7c-1-0.1-2.2-0.1-3.8-0.1s-3.3,0-5.2,0s-3.8,0-5.6,0c-1.4,0-3,0-4.9,0c-1.8,0-3.7,0-5.6,0
		c-1.9,0-3.6,0-5.3,0.1c-1.6,0-2.9,0.1-3.9,0.1c0-0.7,0-1.3,0.1-1.9c0-0.5,0.2-1,0.3-1.4c1.4-0.1,2.4-0.4,3.2-0.8s1.3-1.1,1.6-2.2
		c0.3-1,0.5-2.5,0.5-4.5v-31c0-1.7-0.2-3-0.5-3.9s-0.8-1.6-1.6-2s-1.8-0.6-3.2-0.7c-0.2-0.4-0.3-0.9-0.3-1.5
		c-0.1-0.6-0.1-1.2-0.1-1.8c1,0.1,2.1,0.1,3.2,0.1c1.1,0,2.2,0.1,3.3,0.1s1.9,0,2.6,0c1.1,0,2.2,0,3.2,0s2,0,3-0.1s2-0.1,3-0.1
		c0,0.7,0,1.3-0.1,1.8c-0.1,0.6-0.2,1-0.3,1.4c-1.3,0.1-2.4,0.3-3.1,0.7c-0.8,0.4-1.3,1.1-1.6,2c-0.3,1-0.5,2.3-0.5,4.1v30.8
		c0,1.9,0.2,3.3,0.5,4.3c0.4,1,1,1.7,2,2.1s2.4,0.6,4.3,0.6h0.6V384.7z"/>
	<path d="M801.8,336.8c0.8,0.1,1.7,0.1,2.8,0.1s2.3,0.1,3.6,0.1s2.5,0,3.6,0s2,0,2.7,0v40.6c0,1.9,0.2,3.3,0.5,4.3
		c0.4,1,1,1.7,2,2.1s2.4,0.6,4.3,0.6v3.4c-1.4,0-3,0-4.9,0c-1.8,0-3.7,0-5.6,0c-1.9,0-3.6,0-5.3,0.1c-1.6,0-2.9,0.1-3.9,0.1
		c0-0.7,0-1.3,0.1-1.9c0-0.5,0.2-1,0.3-1.4c1.4-0.1,2.4-0.4,3.2-0.8s1.3-1.1,1.6-2.2c0.3-1,0.5-2.5,0.5-4.5v-31c0-1.7-0.2-3-0.5-3.9
		s-0.8-1.6-1.6-2s-1.8-0.6-3.2-0.7c-0.2-0.4-0.3-0.9-0.3-1.5C801.8,338,801.8,337.4,801.8,336.8z M835.7,336.8
		c0.1,1.1,0.2,2.4,0.4,3.9s0.3,2.9,0.5,4.3s0.4,2.7,0.7,3.8c-0.4,0.4-0.9,0.6-1.5,0.7s-1.2,0.2-1.9,0.2c-0.1-1.6-0.5-3.1-1.2-4.5
		c-0.7-1.5-1.9-2.7-3.7-3.6c-1.7-1-4.2-1.4-7.5-1.4h-8.6l1.6-3c4,0,7.4,0,10.2,0s5.2-0.1,7-0.1C833.6,336.8,834.9,336.8,835.7,336.8
		z M831.2,354.1c-0.1,1.3-0.1,2.6-0.1,4.1s0,2.8,0,4.2c0,1.3,0,2.8,0,4.4s0.1,3.1,0.1,4.4c-0.7,0-1.3,0-1.8-0.1
		c-0.6,0-1.1-0.2-1.7-0.3c-0.2-2.6-0.9-4.4-2.1-5.3c-1.2-0.9-3.3-1.4-6.5-1.4h-5.4v-3.2h5.4c3.1,0,5.3-0.4,6.5-1.2
		c1.2-0.8,1.8-2.4,1.9-4.9c0.7-0.2,1.3-0.3,1.8-0.4C830,354.1,830.6,354.1,831.2,354.1z M836.5,375.2c0.8,0.2,1.4,0.4,1.9,0.7
		c0.5,0.3,1,0.6,1.4,1.1c-0.6,1.7-1,3.6-1.4,5.6s-0.7,3.9-0.9,5.7c-1-0.1-2.3-0.1-3.9-0.1s-3.5,0-5.6,0s-4.3,0-6.7,0v-3.4h0.5
		c3.6,0,6.4-0.4,8.2-1.1s3.2-1.8,4.1-3.2C835,379,835.8,377.2,836.5,375.2z"/>
	<path d="M869.6,388.8c-4.7,0-8.8-1.1-12.4-3.4c-3.6-2.2-6.4-5.4-8.5-9.4s-3.1-8.6-3.1-13.9c0-4.3,0.7-8.1,2.1-11.3
		c1.4-3.2,3.3-5.9,5.7-8.1s5.1-3.8,8.1-4.8c3-1.1,6.1-1.6,9.3-1.6s6.1,0.3,8.7,1c2.6,0.7,5.3,1.6,8.1,2.9c-0.4,1.8-0.6,3.6-0.7,5.6
		c-0.1,2-0.2,4-0.2,6.1c-0.7,0.3-1.3,0.4-1.9,0.5c-0.6,0.1-1.3,0.2-2.1,0.2c-0.1-3.6-0.6-6.3-1.6-8.2c-1-1.9-2.3-3.2-3.9-3.9
		c-1.7-0.7-3.6-1.1-5.8-1.1c-3.2,0-5.9,0.6-8.2,1.7c-2.3,1.2-4.1,2.7-5.6,4.6c-1.4,1.9-2.5,4.1-3.2,6.6s-1,5-1,7.7
		c0,4.5,0.8,8.5,2.3,12.2s3.7,6.5,6.6,8.7c2.9,2.1,6.3,3.2,10.3,3.2c2.4,0,4.9-0.4,7.4-1.2s4.8-1.9,7-3.2c0.3,0.3,0.6,0.6,0.9,1.1
		c0.3,0.5,0.4,0.9,0.5,1.2c-3,2.3-5.9,4-8.8,5.1C876.8,388.2,873.4,388.8,869.6,388.8z"/>
	<path d="M907.2,340.3c-2.4,0-4.2,0.4-5.5,1.2c-1.2,0.8-2.1,1.9-2.6,3.2c-0.5,1.4-1,3-1.3,4.8c-0.6,0-1.2,0-1.9-0.2
		c-0.7-0.1-1.3-0.3-1.7-0.5c0.4-2.1,0.7-4.2,0.9-6.3s0.3-4,0.3-5.7c1.4,0.1,3.1,0.1,5.2,0.2c2,0.1,4.3,0.1,6.6,0.1
		c2.4,0,4.9,0,7.4,0c2.6,0,5.1,0,7.5,0s4.7,0,6.8-0.1c2.1,0,3.8-0.1,5.1-0.2c-0.1,1.8,0,3.7,0,5.6c0.1,1.9,0.2,4.1,0.4,6.5
		c-0.5,0.3-1.1,0.4-1.7,0.6c-0.6,0.1-1.3,0.2-2.1,0.1c-0.1-3-0.7-5.3-2.1-6.8c-1.3-1.6-3.5-2.4-6.5-2.4h-14.8V340.3z M911.1,339.1
		h7.1v39.4c0,1.7,0.2,3,0.5,3.9s0.9,1.6,1.7,2c0.9,0.4,2.1,0.6,3.7,0.7c0.2,0.4,0.3,0.9,0.3,1.4s0.1,1.1,0.1,1.9
		c-1.6-0.1-3.3-0.2-4.9-0.2c-1.7,0-3.3,0-4.9,0c-1.1,0-2.2,0-3.4,0s-2.3,0-3.4,0.1c-1.1,0-2.1,0.1-3.1,0.1c0-0.7,0-1.3,0.1-1.9
		c0-0.5,0.2-1,0.3-1.4c1.6-0.1,2.9-0.3,3.7-0.7c0.9-0.4,1.5-1,1.8-2c0.3-0.9,0.5-2.2,0.5-3.9L911.1,339.1L911.1,339.1z"/>
	<path d="M944.3,346.6c0-1.7-0.2-3-0.5-3.9s-0.8-1.6-1.6-2s-1.8-0.6-3.2-0.7c-0.2-0.4-0.3-0.9-0.3-1.4c-0.1-0.6-0.1-1.2-0.1-1.8
		c1,0.1,1.9,0.1,2.9,0.1s2,0.1,3.1,0.1s2.1,0,3.2,0c1.1,0,2.2,0,3.2,0s2,0,3-0.1c1,0,2-0.1,3-0.1c0,0.7,0,1.3-0.1,1.8
		c-0.1,0.6-0.2,1-0.3,1.4c-1.3,0.1-2.4,0.3-3.1,0.7c-0.8,0.4-1.3,1.1-1.6,2s-0.5,2.2-0.5,3.9v31.9c0,1.7,0.2,3,0.5,3.9
		s0.8,1.6,1.6,2s1.8,0.6,3.1,0.7c0.2,0.4,0.3,0.9,0.3,1.4s0.1,1.1,0.1,1.9c-1.5-0.1-3-0.2-4.6-0.2s-3.1,0-4.5,0c-1.5,0-3,0-4.7,0
		s-3.1,0.1-4.5,0.2c0-0.7,0-1.3,0.1-1.9c0-0.5,0.2-1,0.3-1.4c1.4-0.1,2.4-0.3,3.2-0.7c0.8-0.4,1.3-1,1.6-2c0.3-0.9,0.5-2.2,0.5-3.9
		v-31.9H944.3z"/>
	<path d="M988.8,388.8c-5,0-9.3-1.2-13.1-3.5c-3.7-2.3-6.6-5.5-8.7-9.4c-2.1-4-3.1-8.5-3.1-13.4c0-3.9,0.6-7.4,1.9-10.6
		s3.1-5.9,5.3-8.2c2.3-2.3,4.9-4.1,7.9-5.4s6.3-1.9,9.7-1.9c4.8,0,9.1,1.1,12.9,3.3c3.8,2.2,6.7,5.2,8.9,9.1s3.2,8.4,3.2,13.6
		c0,3.7-0.6,7.2-1.8,10.4c-1.2,3.2-2.9,6-5.2,8.4c-2.2,2.4-4.9,4.3-7.9,5.6C995.9,388.1,992.5,388.8,988.8,388.8z M990.3,385.1
		c3.3,0,6.1-0.9,8.4-2.8c2.3-1.8,4.1-4.3,5.4-7.5c1.3-3.1,1.9-6.6,1.9-10.5c0-4.5-0.8-8.7-2.5-12.4c-1.6-3.7-3.9-6.6-6.7-8.8
		c-2.8-2.2-6-3.2-9.7-3.2c-3,0-5.6,0.8-8,2.5c-2.3,1.7-4.2,4.1-5.6,7.1c-1.4,3.1-2,6.6-2,10.7c0,3.2,0.4,6.2,1.2,9.2s2,5.6,3.6,7.9
		s3.5,4.2,5.9,5.5C984.7,384.4,987.3,385.1,990.3,385.1z"/>
	<path d="M1061.4,388.5l-35.4-46.2c-0.7-0.9-1.4-1.5-2-1.8c-0.7-0.3-1.6-0.5-2.9-0.6c-0.2-0.6-0.3-1.1-0.3-1.7
		c-0.1-0.6-0.1-1.1-0.1-1.5c0.5,0.1,1.1,0.1,1.7,0.1c0.6,0,1.3,0.1,2,0.1c0.7,0,1.3,0,1.9,0c1,0,1.9,0,2.8-0.1
		c0.9,0,1.6-0.1,2.3-0.2l30.1,40L1061.4,388.5z M1020.7,388.3c0-0.7,0-1.2,0.1-1.8c0-0.5,0.2-1,0.3-1.5c1.4,0,2.4-0.3,3.2-1
		c0.8-0.7,1.3-1.8,1.6-3.4c0.3-1.6,0.5-3.9,0.5-6.7v-32h3.9v32c0,2.8,0.2,5,0.5,6.7c0.3,1.6,0.8,2.8,1.6,3.4c0.8,0.7,1.8,1,3.2,1
		c0.2,0.5,0.3,0.9,0.3,1.4s0.1,1.1,0.1,1.8c-0.8-0.1-1.6-0.1-2.5-0.1s-1.8-0.1-2.6-0.1c-0.9,0-1.7,0-2.4,0c-0.7,0-1.5,0-2.5,0
		s-1.9,0-2.8,0.1C1022.1,388.2,1021.4,388.3,1020.7,388.3z M1061.4,388.5l-0.6-7.6v-30.2c0-2.8-0.2-4.9-0.5-6.5
		c-0.3-1.5-0.8-2.6-1.6-3.3c-0.8-0.7-1.8-1-3.2-1c-0.2-0.9-0.3-1.5-0.3-1.9c-0.1-0.4-0.1-0.9-0.1-1.3c0.8,0.1,1.5,0.1,2.3,0.1
		s1.6,0.1,2.5,0.1c0.8,0,1.6,0,2.3,0c1.1,0,2.3,0,3.6-0.1c1.4,0,2.5-0.1,3.6-0.2c0,0.5,0,1-0.1,1.6s-0.2,1.1-0.3,1.7
		c-1.1,0-2,0.3-2.6,1c-0.7,0.7-1.1,1.8-1.4,3.3s-0.4,3.7-0.4,6.5V388c-0.4,0.2-0.9,0.3-1.5,0.3S1061.9,388.5,1061.4,388.5z"/>
</g>
<g>
	<path class="st2" d="M635.3,423.8c3.5,0.6,5.9,2.3,5.9,5.4c0,2-1.3,4-3.2,5c-1.7,0.9-3.8,1.4-6.3,1.4h-9.3v-1.2
		c2.5-0.3,2.8-0.4,2.8-3.2v-12.6c0-2.8-0.4-3.1-2.8-3.2v-1.2h10c2.5,0,4.1,0.3,5.4,1.2c1.2,0.8,2,2,2,3.7
		C640.1,421.8,637.5,423.4,635.3,423.8z M631.1,423.4c3.1,0,4.3-1.4,4.3-3.8c0-2.9-1.9-4-3.7-4c-0.8,0-1.3,0.1-1.6,0.3
		c-0.4,0.2-0.3,0.5-0.3,1.2v6.3H631.1z M629.8,431.2c0,2.4,1.1,3.1,2.9,3.1c1.8,0,3.6-1.6,3.6-4.7c0-3.2-1.6-4.7-5.3-4.7h-1.2V431.2
		z"/>
	<path class="st2" d="M668.5,430.1c-0.2,0.9-1.1,4.7-1.4,5.6h-17.2v-1.2c3-0.3,3.2-0.5,3.2-3.2v-12.6c0-2.8-0.4-3-2.6-3.2v-1.2h10.7
		c3.5,0,4.6,0,5.1-0.1c0,0.6,0.2,3.3,0.3,5.4l-1.3,0.2c-0.3-1.1-0.9-2.5-1.4-3.1c-0.6-0.7-1-0.9-2.7-0.9h-2.1
		c-1.3,0-1.4,0.1-1.4,1.2v6.9h3.2c1.9,0,2.2-0.5,2.7-2.8h1.3v7.4h-1.3c-0.5-2.4-0.8-2.8-2.7-2.8h-3.2v5.7c0,2.3,0.1,3,2.1,3h2.3
		c1.9,0,2.3-0.2,3.1-1.1c0.8-1,1.5-2.2,2-3.3L668.5,430.1z"/>
	<path class="st2" d="M710,415.4c-2.1,0.2-2.9,0.7-4.1,2.7c-1.2,2-2.2,3.9-3.8,7.2c-0.3,0.5-0.4,0.9-0.4,1.8v4.1c0,2.9,0.3,3,3,3.3
		v1.2h-10.4v-1.2c2.6-0.3,2.8-0.4,2.8-3.3v-3.8c0-0.7-0.1-1.1-0.4-1.5c-1-2-2.2-4.2-4.2-7.6c-1.2-2.1-1.7-2.6-3.6-2.8v-1.2h9.7v1.2
		c-2.2,0.3-2.1,0.7-1.6,1.9c1.1,2.1,2.5,4.8,3.8,7.2c1-1.9,2.6-5,3.5-7c0.6-1.3,0.4-1.8-2-2v-1.2h7.7V415.4z"/>
	<path class="st2" d="M728.4,413.7c6.1,0,11.1,4.5,11.1,11c0,7-5,11.5-11.3,11.5c-6.6,0-11.4-4.8-11.4-11.2
		C716.8,419.3,720.9,413.7,728.4,413.7z M727.9,415.2c-3.4,0-5.8,3.3-5.8,9.2c0,5.6,2.2,10.4,6.7,10.4c3.1,0,5.6-3,5.6-9.1
		C734.3,419.1,731.7,415.2,727.9,415.2z"/>
	<path class="st2" d="M771.8,415.4c-2.1,0.2-2.7,0.8-2.8,2c-0.1,1-0.2,2.1-0.2,4.4v4.3c0,2.8-0.5,5.7-2.3,7.7
		c-1.5,1.6-3.9,2.3-6.2,2.3c-2.2,0-4.4-0.5-5.9-1.7c-1.9-1.5-2.8-3.5-2.8-7.2v-8.4c0-3-0.3-3.3-2.8-3.5v-1.2H759v1.2
		c-2.5,0.2-2.8,0.5-2.8,3.5v8.8c0,3.7,1.8,6.1,5.4,6.1c3.9,0,5.7-2.9,5.7-7.9v-4.1c0-2.3-0.1-3.5-0.2-4.5c-0.1-1.5-1.1-1.9-3.4-2
		V414h8.2v1.4H771.8z"/>
	<path class="st2" d="M800.8,435.9c-0.2,0-0.6,0-1,0c-4.2-0.2-5.4-1.1-6.4-2.5c-1.3-1.8-2.3-3.8-3.4-5.8c-0.5-0.9-1-1.1-2-1.1h-0.7
		v4.8c0,2.7,0.3,2.9,2.8,3.2v1.2H780v-1.2c2.5-0.3,2.8-0.5,2.8-3.2v-12.7c0-2.6-0.3-3-2.8-3.2v-1.2h9.6c2.9,0,4.6,0.3,6,1.3
		c1.3,0.9,2.2,2.3,2.2,4.4c0,2.9-2,4.5-4.1,5.4c0.5,1,1.8,3.1,2.8,4.7c1.2,1.8,1.9,2.7,2.5,3.4c0.8,0.9,1.1,1.1,2.1,1.5L800.8,435.9
		z M788.2,425.1c1.4,0,2.5-0.2,3.2-0.9c1.1-0.9,1.6-2.2,1.6-3.9c0-3.5-2-4.8-3.9-4.8c-0.9,0-1.3,0.1-1.5,0.3
		c-0.2,0.2-0.3,0.6-0.3,1.3v7.9h0.9V425.1z"/>
	<path class="st2" d="M833.7,413.7c6.1,0,11.1,4.5,11.1,11c0,7-5,11.5-11.3,11.5c-6.6,0-11.4-4.8-11.4-11.2
		C822.2,419.3,826.2,413.7,833.7,413.7z M833.2,415.2c-3.4,0-5.8,3.3-5.8,9.2c0,5.6,2.2,10.4,6.7,10.4c3.1,0,5.6-3,5.6-9.1
		C839.7,419.1,837.1,415.2,833.2,415.2z"/>
	<path class="st2" d="M884.7,415.4c-2.4,0.3-2.8,0.8-3.7,3.5c-0.9,2.5-3.3,10.4-5.4,17.1h-1.9c-1.7-4.8-3.6-9.7-5.5-14.6
		c-1.7,5-3.4,9.8-4.9,14.6h-1.9c-1.3-4.7-3.4-11.5-5.3-17.4c-0.8-2.5-1.3-3.1-3.3-3.3v-1.2h10v1.2c-2.5,0.2-2.5,0.7-2.1,2.4
		c1.1,3.8,2.2,7.7,3.3,11.3c1.7-4.7,3.3-9.7,4.8-14.8h1.8c1.8,5.1,3.7,10,5.5,14.8c1.2-3.6,2.8-9.1,3.3-11c0.5-2,0.1-2.5-2.7-2.8
		V414h8.1L884.7,415.4L884.7,415.4z"/>
	<path class="st2" d="M915.3,415.4c-2,0.3-2.6,0.7-2.7,2.2c-0.1,1.3-0.2,2.4-0.2,5.3V436h-1.9l-13.8-16.5v7.5c0,2.9,0.1,4.2,0.2,5.1
		c0.1,1.5,0.8,2.2,3.3,2.3v1.2H892v-1.2c1.9-0.2,2.7-0.7,2.9-2.2c0.1-1.2,0.2-2.4,0.2-5.3v-7.8c0-1.1-0.1-1.8-0.7-2.7
		c-0.6-0.8-1.4-0.9-2.8-1.1v-1.2h6.4l12.6,14.6v-5.9c0-2.9,0-4-0.1-5.2c-0.1-1.4-0.6-2.1-3.4-2.3v-1.2h8.2V415.4z"/>
	<path class="st2" d="M955.1,429.9c-0.3,1.4-1.2,4.9-1.5,5.8h-16.4v-1.2c2.9-0.2,3.2-0.4,3.2-3.2v-12.6c0-2.8-0.3-3-2.8-3.2v-1.2
		h10.3v1.2c-2.6,0.2-2.9,0.5-2.9,3.2v12.8c0,1.8,0.1,2.6,1.9,2.7c0.1,0,1.6,0,1.7,0c1.9,0,2.4-0.4,3.2-1.3c0.6-0.7,1.5-2.1,2.1-3.4
		L955.1,429.9z"/>
	<path class="st2" d="M975.7,435.7v-1.2c2.1-0.3,2.1-0.7,1.6-2.1c-0.3-1-0.9-2.5-1.4-3.8h-6.4c-0.4,1-0.8,2.3-1.2,3.3
		c-0.7,2.1,0.1,2.3,2.7,2.6v1.2h-8.2v-1.2c2.1-0.3,2.6-0.6,3.7-3.3l6.9-17.1l1.6-0.3c2.1,5.8,4.4,11.6,6.5,17.2
		c1.2,3.1,1.5,3.3,3.7,3.6v1.2h-9.5V435.7z M972.8,419.9c-1,2.4-1.9,4.6-2.7,7h5.3L972.8,419.9z"/>
	<path class="st2" d="M1005.9,423.8c3.5,0.6,5.9,2.3,5.9,5.4c0,2-1.3,4-3.2,5c-1.7,0.9-3.8,1.4-6.3,1.4H993v-1.2
		c2.5-0.3,2.8-0.4,2.8-3.2v-12.6c0-2.8-0.4-3.1-2.8-3.2v-1.2h10c2.5,0,4.1,0.3,5.4,1.2c1.2,0.8,2,2,2,3.7
		C1010.6,421.8,1008.1,423.4,1005.9,423.8z M1001.7,423.4c3.1,0,4.3-1.4,4.3-3.8c0-2.9-1.9-4-3.7-4c-0.8,0-1.3,0.1-1.6,0.3
		c-0.4,0.2-0.3,0.5-0.3,1.2v6.3H1001.7z M1000.4,431.2c0,2.4,1.1,3.1,2.9,3.1c1.8,0,3.6-1.6,3.6-4.7c0-3.2-1.6-4.7-5.3-4.7h-1.2
		V431.2z"/>
	<path class="st2" d="M1039.1,430.1c-0.2,0.9-1.1,4.7-1.4,5.6h-17.2v-1.2c3-0.3,3.2-0.5,3.2-3.2v-12.6c0-2.8-0.4-3-2.6-3.2v-1.2
		h10.7c3.5,0,4.6,0,5.1-0.1c0,0.6,0.2,3.3,0.3,5.4l-1.3,0.2c-0.3-1.1-0.9-2.5-1.4-3.1c-0.6-0.7-1-0.9-2.7-0.9h-2.1
		c-1.3,0-1.4,0.1-1.4,1.2v6.9h3.2c1.9,0,2.2-0.5,2.7-2.8h1.3v7.4h-1.3c-0.5-2.4-0.8-2.8-2.7-2.8h-3.2v5.7c0,2.3,0.1,3,2.1,3h2.3
		c1.9,0,2.3-0.2,3.1-1.1c0.8-1,1.5-2.2,2-3.3L1039.1,430.1z"/>
	<path class="st2" d="M1065.1,429.9c-0.3,1.4-1.2,4.9-1.5,5.8h-16.4v-1.2c2.9-0.2,3.2-0.4,3.2-3.2v-12.6c0-2.8-0.3-3-2.8-3.2v-1.2
		h10.3v1.2c-2.6,0.2-2.9,0.5-2.9,3.2v12.8c0,1.8,0.1,2.6,1.9,2.7c0.1,0,1.6,0,1.7,0c1.9,0,2.4-0.4,3.2-1.3c0.6-0.7,1.5-2.1,2.1-3.4
		L1065.1,429.9z"/>
</g>
</svg>
